<svg width="20" height="20" viewBox="0 0 20 20" fill="none" xmlns="http://www.w3.org/2000/svg">
<path d="M9.16699 15.0001H10.8337V13.3334H9.16699V15.0001ZM10.0003 1.66675C5.40033 1.66675 1.66699 5.40008 1.66699 10.0001C1.66699 14.6001 5.40033 18.3334 10.0003 18.3334C14.6003 18.3334 18.3337 14.6001 18.3337 10.0001C18.3337 5.40008 14.6003 1.66675 10.0003 1.66675ZM10.0003 16.6667C6.32533 16.6667 3.33366 13.6751 3.33366 10.0001C3.33366 6.32508 6.32533 3.33341 10.0003 3.33341C13.6753 3.33341 16.667 6.32508 16.667 10.0001C16.667 13.6751 13.6753 16.6667 10.0003 16.6667ZM10.0003 5.00008C8.15866 5.00008 6.66699 6.49175 6.66699 8.33342H8.33366C8.33366 7.41675 9.08366 6.66675 10.0003 6.66675C10.917 6.66675 11.667 7.41675 11.667 8.33342C11.667 10.0001 9.16699 9.79175 9.16699 12.5001H10.8337C10.8337 10.6251 13.3337 10.4167 13.3337 8.33342C13.3337 6.49175 11.842 5.00008 10.0003 5.00008Z" fill="#C4C4C4"/>
</svg>
