<svg width="1826" height="420" viewBox="0 0 1826 420" fill="none" xmlns="http://www.w3.org/2000/svg">
<path d="M1825.5 273.5V419.5H1704.5L1825.5 273.5Z" fill="white" fill-opacity="0.02"/>
<path d="M1438 419.5L1246.85 194.5L1158.24 300.031L1258 419.5H1438Z" fill="white" fill-opacity="0.02"/>
<path d="M857.5 419.5H1057.75L1158.24 300.031L1058.47 180.562L857.5 419.5Z" fill="white" fill-opacity="0.05"/>
<path d="M1146.77 75.5826L1246.85 194.5L1158.24 300.031L1058.47 180.562L1146.77 75.5826Z" fill="white" fill-opacity="0.07"/>
<path d="M1409.5 0.969788L1246.85 194.5L1438 419.5H1494L1825.5 24.5V0.969788H1409.5Z" fill="white" fill-opacity="0.05"/>
<path d="M1409.5 0.969788L1209.5 0.999999L1146.77 75.5826L1246.85 194.5L1409.5 0.969788Z" fill="white" fill-opacity="0.09"/>
<path d="M1084 1H1209.5L1146.77 75.5826L1084 1Z" fill="white" fill-opacity="0.1"/>
<path d="M1084 1H928.5L918.505 12.951L1058.47 180.562L1146.77 75.5826L1084 1Z" fill="white" fill-opacity="0.12"/>
<path d="M857.5 419.5H836L707.078 265.758L918.505 12.951L1058.47 180.562L857.5 419.5Z" fill="white" fill-opacity="0.07"/>
<path d="M836 419.5L707.078 265.758L578.5 419.5H836Z" fill="white" fill-opacity="0.05"/>
<path d="M908.5 0.969788L928.5 0.999999L918.505 12.951L908.5 0.969788Z" fill="white" fill-opacity="0.2"/>
<path d="M707.078 265.758L595.789 133.044L707.078 0.665527L908.5 0.969791L918.505 12.951L707.078 265.758Z" fill="white" fill-opacity="0.12"/>
<path d="M707.078 265.758L578.5 419.5L466.051 285.488L595.789 133.044L707.078 265.758Z" fill="white" fill-opacity="0.07"/>
<path d="M484.5 0.329285L595.789 133.044L707.078 0.665505L484.5 0.329285Z" fill="white" fill-opacity="0.15"/>
<path d="M352 419.5L466.051 285.488L578.5 419.5H352Z" fill="white" fill-opacity="0.06"/>
<path d="M266.5 0L484.5 0.329305L595.789 133.044L466.051 285.488L246.434 23.756L266.5 0Z" fill="white" fill-opacity="0.12"/>
<path d="M352 419.5L466.051 285.488L246.434 23.756L0 315.5V419.5H352Z" fill="white" fill-opacity="0.08"/>
<path opacity="0.2" d="M266.5 0H226.5L246.434 23.756L266.5 0Z" fill="white" fill-opacity="0.18"/>
<path d="M0 99.5L82.5 0H226.5L246.434 23.756L0 315.5V99.5Z" fill="white" fill-opacity="0.13"/>
<path d="M82.5 0H0V99.5L82.5 0Z" fill="white" fill-opacity="0.18"/>
</svg>
