<svg width="30" height="30" viewBox="0 0 30 30" fill="none" xmlns="http://www.w3.org/2000/svg">
<path d="M14.9113 20.4159C17.8411 20.4159 20.2161 18.0409 20.2161 15.1111C20.2161 12.1813 17.8411 9.80624 14.9113 9.80624C11.9815 9.80624 9.60645 12.1813 9.60645 15.1111C9.60645 18.0409 11.9815 20.4159 14.9113 20.4159Z" fill="white"/>
<path d="M14.9999 8.67189H27.6998C25.3691 3.98439 20.5185 0.789154 14.9118 0.789154C10.3727 0.789154 6.32922 2.93908 3.71711 6.24329L8.66781 14.6217C8.90969 11.3625 11.2499 8.68829 14.9999 8.67189ZM28.1545 9.60939H18.3501C20.0852 11.0156 21.2327 12.8635 21.2327 15.0865C21.2327 16.1794 20.9554 17.1094 20.4667 18.2813H20.4702L13.9647 29.4167C14.2776 29.437 14.5933 29.4115 14.9116 29.4115C22.7887 29.4115 29.1745 22.9085 29.1745 15.0314C29.1747 13.1564 28.8121 11.4844 28.1545 9.60939V9.60939ZM14.9118 21.4324C12.1762 21.4324 9.84672 19.6948 8.96617 17.2631L3.0632 7.16837C1.53859 9.43853 0.648438 12.1711 0.648438 15.1111C0.648438 22.2905 5.95328 28.2295 12.8568 29.2261L17.7777 20.7467C16.9173 21.1852 15.9433 21.4324 14.9118 21.4324V21.4324Z" fill="white"/>
</svg>
