<svg width="32" height="32" viewBox="0 0 32 32" fill="none" xmlns="http://www.w3.org/2000/svg">
<path fill-rule="evenodd" clip-rule="evenodd" d="M1.81887 12.9367L1.01362 13.5815C0.894372 13.0962 1.00212 12.6725 1.12737 12.2622C1.38587 11.4145 1.84187 10.6657 2.36137 9.95422C2.54962 9.69622 2.68387 9.44097 2.67812 9.09347C2.65687 7.86372 2.78712 6.64897 3.20862 5.48272C3.42362 4.88797 3.71412 4.33472 4.21062 3.85422C4.40637 4.81072 4.58387 5.72997 5.10712 6.41947C5.48462 6.08472 5.86237 5.76622 6.22137 5.42822C8.37737 3.40047 10.9159 2.13347 13.8419 1.71647C17.5121 1.19322 20.8994 1.98047 23.9744 4.07447C24.2649 4.27247 24.5984 4.40772 24.9151 4.56497C26.3714 5.28822 27.4706 6.36447 28.1591 7.84472C28.2746 8.09247 28.3641 8.35222 28.4659 8.60622L28.5574 8.59047L28.1614 6.21572C29.7489 8.44347 30.2496 10.916 30.3851 13.5105C30.6816 13.0967 30.6794 12.6067 30.8399 12.138C30.8926 12.4785 30.9586 12.8177 30.9959 13.1597C31.1424 14.504 30.8816 15.808 30.6341 17.121C30.0494 20.2222 28.7061 22.9672 26.6816 25.3525C24.3766 28.0685 21.4974 29.882 17.8959 30.3125C12.6699 30.937 8.27962 29.2577 4.73387 25.3715C3.03237 23.5077 1.90712 21.3382 1.40337 18.8675C1.02237 16.9972 1.11412 15.1372 1.73487 13.318L1.83212 13.039C1.83762 13.0227 1.82812 13.0015 1.81887 12.9367V12.9367ZM25.4779 10.4567L25.5769 10.3712L26.6929 11.233C26.6781 10.9715 26.6894 10.6962 26.6441 10.431C26.4454 9.27397 25.7441 8.43522 24.8726 7.71547C23.7804 6.81347 22.5269 6.19297 21.2279 5.65447C21.1001 5.60147 20.9749 5.54222 20.8489 5.48597L20.8644 5.35547L22.6956 5.24697C22.0191 4.13072 20.8566 3.81922 19.6786 3.49872L19.8254 3.42097C17.4379 2.67547 15.0716 2.61697 12.6876 3.22697C10.4699 3.79447 7.14012 5.81622 6.62562 6.90697L6.77562 6.87047C7.61262 6.66497 8.44812 6.60847 9.29112 6.85297C9.38287 6.87947 9.53587 6.81872 9.61487 6.74772C10.4046 6.04047 11.2829 5.48672 12.3004 5.17347C12.6209 5.07472 12.9514 5.00897 13.2774 4.92822C13.2504 5.03847 13.2011 5.08347 13.1471 5.12072C12.0921 5.84572 11.3811 6.79922 11.1829 8.08997C11.1721 8.16072 11.1829 8.26697 11.2281 8.30972C11.6954 8.74922 12.1591 9.19397 12.6514 9.60372C12.8216 9.74522 13.0616 9.84022 13.2824 9.87522C13.7089 9.94297 14.1446 9.95572 14.5769 9.98622C14.8426 10.005 15.0146 10.1927 14.9194 10.408C14.7781 10.7285 14.6239 11.0257 14.2996 11.242C13.6861 11.6515 13.1181 12.1297 12.5264 12.5725C12.3786 12.6832 12.3729 12.7837 12.4496 12.9472C12.5914 13.2492 12.7269 13.559 12.8179 13.879C12.9329 14.2835 12.9719 14.7017 12.8669 15.1295C12.5326 15.0557 12.2264 14.983 11.9184 14.9217C11.6089 14.8602 11.2969 14.8122 10.9864 14.755C10.5984 14.6837 10.2674 14.8197 10.0684 15.136C9.83762 15.503 9.83387 15.8865 10.0806 16.201C10.5834 16.8412 11.1526 17.4155 11.8249 17.879C12.3811 18.263 13.0064 18.4765 13.6719 18.334C14.1351 18.235 14.5889 18.0367 15.0104 17.8137C16.2884 17.1385 17.7301 17.3662 18.6144 18.4172C18.7726 18.605 18.8674 18.818 18.7331 19.0385C18.6041 19.2502 18.3876 19.3 18.1389 19.2377C17.8804 19.173 17.6414 19.2175 17.4079 19.3725C16.7916 19.7815 16.1864 20.217 15.5329 20.5585C14.4801 21.1087 13.3329 21.294 12.1481 21.25C12.0261 21.246 11.9041 21.25 11.7394 21.25C11.8004 21.3222 11.8221 21.353 11.8489 21.3787C12.7046 22.2085 13.6856 22.8462 14.8179 23.2195C16.0646 23.6305 17.3389 23.7987 18.6324 23.4415C20.0821 23.0412 21.2209 22.163 22.1949 21.0532C22.5874 20.6057 22.9434 20.1265 23.3161 19.662L23.4094 19.6822L23.0804 21.9275C24.8676 19.741 24.9246 17.2412 24.6731 14.6057C25.1874 15.1785 25.3434 15.85 25.6381 16.523C26.2401 14.433 25.9424 12.443 25.4779 10.4567V10.4567Z" fill="white"/>
</svg>
