<svg width="36" height="36" viewBox="0 0 36 36" fill="none" xmlns="http://www.w3.org/2000/svg">
<path fill-rule="evenodd" clip-rule="evenodd" d="M17.9998 1.43518C8.62091 1.43518 1.01562 9.03877 1.01562 18.4193C1.01562 25.9236 5.88209 32.2897 12.6304 34.5358C13.4789 34.6933 13.7906 34.1673 13.7906 33.7187C13.7906 33.3137 13.7748 31.9758 13.7675 30.5567C9.0425 31.5841 8.04547 28.5527 8.04547 28.5527C7.27288 26.5896 6.15969 26.0676 6.15969 26.0676C4.61844 25.0135 6.27584 25.0354 6.27584 25.0354C7.98106 25.155 8.87938 26.7857 8.87938 26.7857C10.3942 29.3816 12.8526 28.6312 13.8218 28.1975C13.9742 27.0998 14.4144 26.3503 14.9001 25.9261C11.1277 25.4972 7.16178 24.0406 7.16178 17.5328C7.16178 15.6785 7.82553 14.1634 8.912 12.9737C8.73537 12.5462 8.15403 10.8188 9.07625 8.47937C9.07625 8.47937 10.5022 8.0229 13.7478 10.2203C15.1029 9.84371 16.5561 9.65443 17.9998 9.64796C19.4426 9.65443 20.8966 9.84315 22.2542 10.2197C25.4959 8.02234 26.9202 8.47881 26.9202 8.47881C27.8446 10.818 27.2633 12.5457 27.0869 12.9732C28.1759 14.1629 28.8349 15.678 28.8349 17.5322C28.8349 24.0556 24.8617 25.4916 21.0797 25.9124C21.6892 26.4394 22.232 27.4733 22.232 29.0576C22.232 31.3301 22.2123 33.1591 22.2123 33.7185C22.2123 34.1704 22.5183 34.7 23.3789 34.5332C30.1233 32.2849 34.9842 25.9208 34.9842 18.4193C34.9839 9.03934 27.3794 1.43546 17.9998 1.43546V1.43518Z" fill="white" fill-opacity="0.85"/>
</svg>
