<svg width="256" height="215" viewBox="0 0 256 215" fill="none" xmlns="http://www.w3.org/2000/svg">
<g clip-path="url(#clip0)">
<path opacity="0.1" d="M187.291 0.283887C175.282 -0.296048 163.066 -0.198966 151.469 2.65983C139.872 5.51863 128.844 11.4023 122.244 20.4258C118.466 25.5915 116.21 31.6412 111.81 36.3931C104.176 44.6323 91.6984 47.463 80.1835 50.3039C53.1422 56.9463 25.9499 66.5446 6.33514 84.5252C3.51914 87.103 0.77482 90.0435 0.137379 93.6074C-0.840541 99.0874 3.46538 104.215 8.24234 107.723C13.0193 111.23 18.6718 114.012 22.2071 118.563C26.7153 124.364 26.9687 132.031 25.6887 139.001C24.4087 145.97 21.7745 152.751 21.0807 159.797C20.9092 161.534 20.8683 163.345 21.6235 164.952C22.6244 167.083 24.8491 168.529 27.0302 169.745C34.7631 174.077 43.1072 177.218 51.7803 179.062C66.723 182.258 82.3057 181.658 97.6043 182.971C112.903 184.284 128.836 187.958 139.588 197.804C146.183 203.841 152.132 212.647 161.535 212.348C166.804 212.182 171.458 208.968 176.713 208.611C182.63 208.207 187.977 211.421 193.556 213.253C201.479 215.859 210.654 215.606 218.083 212.014C225.512 208.422 230.906 201.386 231.341 193.824C231.766 186.415 227.742 179.484 225.417 172.364C217.794 149.036 228.518 124.385 239.18 102.036C249.842 79.6864 260.845 55.2193 253.751 31.7562C245.516 4.54271 213.616 1.55617 187.291 0.283887Z" fill="#00ACC1"/>
<path d="M60.626 137.674C60.626 137.674 51.753 132.82 49.1239 125.368C48.041 122.237 45.9695 119.542 43.2206 117.686C41.9087 116.815 40.5196 116.066 39.0708 115.448" stroke="#535461" stroke-width="2" stroke-miterlimit="10"/>
<path d="M37.376 110.765C38.2157 111.608 39.1194 115.565 39.1194 115.565C39.1194 115.565 35.1591 114.638 34.3194 113.798C33.9304 113.39 33.7167 112.847 33.7243 112.284C33.7319 111.722 33.9601 111.184 34.3599 110.788C34.7598 110.391 35.2995 110.166 35.8633 110.162C36.4272 110.158 36.9702 110.374 37.376 110.765V110.765Z" fill="#00ACC1"/>
<path d="M44.5593 112.924C44.8153 114.086 43.4073 117.898 43.4073 117.898C43.4073 117.898 40.5913 114.973 40.3353 113.81C40.2669 113.53 40.2555 113.239 40.3019 112.955C40.3483 112.67 40.4515 112.398 40.6054 112.154C40.7593 111.91 40.9607 111.7 41.1977 111.535C41.4347 111.37 41.7025 111.255 41.9851 111.196C42.2677 111.136 42.5593 111.134 42.8428 111.189C43.1262 111.245 43.3957 111.356 43.6351 111.517C43.8745 111.678 44.079 111.886 44.2364 112.128C44.3939 112.369 44.5011 112.64 44.5517 112.924H44.5593Z" fill="#00ACC1"/>
<path d="M52.3881 121.005C52.0117 122.131 48.8783 124.719 48.8783 124.719C48.8783 124.719 47.9234 120.772 48.2997 119.645C48.4803 119.103 48.8693 118.655 49.3811 118.399C49.8929 118.143 50.4855 118.101 51.0287 118.281C51.5718 118.461 52.021 118.85 52.2774 119.36C52.5338 119.871 52.5763 120.463 52.3957 121.005H52.3881Z" fill="#00ACC1"/>
<path d="M56.9344 128.449C56.7552 129.622 54.1031 132.703 54.1031 132.703C54.1031 132.703 52.4954 128.975 52.6746 127.8C52.7754 127.25 53.0872 126.76 53.5439 126.435C54.0005 126.111 54.5659 125.976 55.1202 126.061C55.6745 126.145 56.174 126.442 56.5128 126.888C56.8515 127.334 57.0027 127.894 56.9344 128.449V128.449Z" fill="#00ACC1"/>
<path d="M40.361 121.245C41.5514 121.232 44.969 119.042 44.969 119.042C44.969 119.042 41.4951 116.932 40.3047 116.945C39.7457 116.969 39.2181 117.21 38.8336 117.615C38.449 118.021 38.2375 118.56 38.2438 119.118C38.2501 119.677 38.4737 120.211 38.8674 120.608C39.2611 121.004 39.7939 121.233 40.3533 121.245H40.361Z" fill="#00ACC1"/>
<path d="M45.7882 129.885C46.9197 129.517 49.5309 126.405 49.5309 126.405C49.5309 126.405 45.5834 125.429 44.4519 125.797C43.9269 125.988 43.4968 126.376 43.2524 126.877C43.0079 127.379 42.9681 127.955 43.1415 128.485C43.3148 129.015 43.6876 129.458 44.1814 129.719C44.6752 129.98 45.2513 130.04 45.7882 129.885V129.885Z" fill="#00ACC1"/>
<path d="M52.2241 137.562C53.4017 137.391 56.5018 134.752 56.5018 134.752C56.5018 134.752 52.7745 133.124 51.5969 133.296C51.3162 133.337 51.0463 133.433 50.8027 133.578C50.5591 133.723 50.3466 133.915 50.1772 134.142C50.0078 134.369 49.885 134.627 49.8156 134.902C49.7462 135.176 49.7317 135.462 49.7729 135.742C49.8141 136.022 49.9101 136.291 50.0556 136.534C50.2011 136.777 50.3931 136.99 50.6207 137.159C50.8483 137.328 51.1071 137.45 51.3822 137.519C51.6573 137.589 51.9434 137.603 52.2241 137.562Z" fill="#00ACC1"/>
<path d="M67.602 116.794C67.602 116.794 61.458 108.765 62.08 100.893C62.3608 97.5935 61.5613 94.2919 59.8016 91.4841C58.9558 90.158 57.9901 88.912 56.9165 87.7618" stroke="#535461" stroke-width="2" stroke-miterlimit="10"/>
<path d="M57.2746 82.7953C57.6995 83.9041 56.9213 87.8895 56.9213 87.8895C56.9213 87.8895 53.6752 85.442 53.2502 84.3333C53.1358 84.0669 53.0764 83.7802 53.0757 83.4904C53.075 83.2005 53.133 82.9135 53.2462 82.6466C53.3595 82.3797 53.5256 82.1384 53.7346 81.9372C53.9436 81.7359 54.1912 81.5789 54.4626 81.4755C54.7339 81.3722 55.0234 81.3246 55.3136 81.3357C55.6038 81.3468 55.8888 81.4163 56.1514 81.54C56.4141 81.6638 56.6489 81.8392 56.8419 82.0558C57.0349 82.2724 57.1821 82.5256 57.2746 82.8004V82.7953Z" fill="#00ACC1"/>
<path d="M62.9579 87.6698C62.7019 88.8322 59.8859 91.7575 59.8859 91.7575C59.8859 91.7575 58.4958 87.9432 58.7415 86.7807C58.7964 86.5006 58.9067 86.2342 59.0658 85.997C59.2249 85.7598 59.4297 85.5566 59.6683 85.3992C59.9069 85.2418 60.1745 85.1334 60.4555 85.0802C60.7365 85.027 61.0253 85.0302 61.305 85.0895C61.5848 85.1489 61.8499 85.2632 62.085 85.4258C62.32 85.5884 62.5203 85.796 62.6742 86.0367C62.828 86.2773 62.9323 86.5461 62.981 86.8273C63.0297 87.1086 63.0218 87.3967 62.9579 87.6749V87.6698Z" fill="#00ACC1"/>
<path d="M66.8367 98.2236C66.0354 99.1024 62.1187 100.201 62.1187 100.201C62.1187 100.201 62.8483 96.2079 63.6547 95.329C63.8426 95.1112 64.0724 94.9331 64.3305 94.8054C64.5885 94.6777 64.8696 94.6029 65.1571 94.5854C65.4447 94.568 65.7328 94.6082 66.0044 94.7037C66.2761 94.7992 66.5259 94.9481 66.7389 95.1416C66.952 95.3351 67.124 95.5692 67.2448 95.8302C67.3656 96.0911 67.4328 96.3736 67.4424 96.6609C67.452 96.9482 67.4038 97.2345 67.3007 97.5029C67.1975 97.7713 67.0415 98.0164 66.8419 98.2236H66.8367Z" fill="#00ACC1"/>
<path d="M67.9703 106.869C67.3303 107.87 63.6567 109.613 63.6567 109.613C63.6567 109.613 63.7003 105.553 64.3403 104.552C64.6583 104.095 65.1411 103.779 65.6874 103.67C66.2338 103.561 66.8012 103.668 67.2707 103.967C67.7402 104.266 68.0753 104.735 68.2057 105.276C68.3362 105.817 68.2518 106.387 67.9703 106.866V106.869Z" fill="#00ACC1"/>
<path d="M55.7439 93.5816C56.8371 94.0491 60.8639 93.4334 60.8639 93.4334C60.8639 93.4334 58.542 90.0994 57.4489 89.6319C56.9267 89.4234 56.3436 89.4268 55.8239 89.6415C55.3043 89.8561 54.8892 90.2649 54.6674 90.7806C54.4456 91.2964 54.4346 91.8782 54.6366 92.402C54.8387 92.9258 55.2379 93.35 55.7491 93.5841L55.7439 93.5816Z" fill="#00ACC1"/>
<path d="M57.1985 103.668C58.3812 103.788 62.0343 102 62.0343 102C62.0343 102 58.819 99.5112 57.6362 99.3911C57.0802 99.3563 56.5323 99.5377 56.1074 99.8971C55.6825 100.257 55.4135 100.766 55.3569 101.319C55.3003 101.872 55.4604 102.426 55.8037 102.864C56.1471 103.302 56.6469 103.59 57.1985 103.668V103.668Z" fill="#00ACC1"/>
<path d="M59.9601 113.292C61.107 113.611 65.0084 112.461 65.0084 112.461C65.0084 112.461 62.2616 109.467 61.1147 109.14C60.8397 109.057 60.5509 109.029 60.2651 109.059C59.9793 109.089 59.7024 109.175 59.4505 109.313C59.1987 109.451 58.9771 109.638 58.7987 109.863C58.6203 110.088 58.4888 110.346 58.4118 110.622C58.3348 110.899 58.314 111.187 58.3505 111.472C58.387 111.756 58.4801 112.031 58.6243 112.279C58.7686 112.527 58.9611 112.743 59.1905 112.916C59.4199 113.089 59.6816 113.214 59.9601 113.284V113.292Z" fill="#00ACC1"/>
<path d="M180.936 127.302C180.936 127.302 179.694 117.277 184.207 110.793C186.117 108.085 187.096 104.832 186.995 101.522C186.935 99.9507 186.731 98.3883 186.386 96.8542" stroke="#535461" stroke-width="2" stroke-miterlimit="10"/>
<path d="M189.204 92.7487C189.01 93.9213 186.324 96.9692 186.324 96.9692C186.324 96.9692 184.76 93.2213 184.955 92.0512C185.06 91.5003 185.378 91.0123 185.839 90.6913C186.3 90.3704 186.868 90.2419 187.423 90.3332C187.977 90.4245 188.474 90.7284 188.808 91.1801C189.141 91.6318 189.284 92.1956 189.207 92.7513L189.204 92.7487Z" fill="#00ACC1"/>
<path d="M191.647 99.8152C190.845 100.694 186.931 101.795 186.931 101.795C186.931 101.795 187.658 97.802 188.467 96.9232C188.858 96.527 189.387 96.2971 189.944 96.2817C190.5 96.2662 191.042 96.4664 191.454 96.8404C191.866 97.2143 192.117 97.7329 192.154 98.2875C192.192 98.842 192.013 99.3895 191.654 99.8152H191.647Z" fill="#00ACC1"/>
<path d="M189.66 110.883C188.524 111.238 184.589 110.216 184.589 110.216C184.589 110.216 187.238 107.135 188.373 106.78C188.909 106.641 189.477 106.714 189.961 106.982C190.445 107.251 190.807 107.695 190.971 108.222C191.136 108.75 191.091 109.321 190.845 109.816C190.6 110.311 190.173 110.693 189.653 110.883H189.66Z" fill="#00ACC1"/>
<path d="M186.268 118.917C185.209 119.459 181.148 119.114 181.148 119.114C181.148 119.114 183.237 115.629 184.297 115.088C184.549 114.959 184.824 114.881 185.107 114.859C185.389 114.836 185.673 114.869 185.942 114.956C186.212 115.043 186.462 115.182 186.677 115.365C186.893 115.549 187.07 115.772 187.199 116.024C187.328 116.276 187.406 116.55 187.429 116.832C187.451 117.114 187.418 117.397 187.331 117.666C187.244 117.935 187.104 118.184 186.921 118.399C186.737 118.614 186.513 118.791 186.261 118.92L186.268 118.917Z" fill="#00ACC1"/>
<path d="M182.43 101.289C183.137 102.245 186.921 103.737 186.921 103.737C186.921 103.737 186.603 99.69 185.897 98.7346C185.55 98.2947 185.046 98.0069 184.491 97.932C183.935 97.8571 183.372 98.0011 182.921 98.3334C182.47 98.6657 182.167 99.1602 182.075 99.712C181.984 100.264 182.111 100.83 182.43 101.289V101.289Z" fill="#00ACC1"/>
<path d="M178.583 110.734C179.543 111.434 183.601 111.728 183.601 111.728C183.601 111.728 182.083 107.962 181.123 107.262C180.66 106.945 180.092 106.82 179.538 106.914C178.985 107.009 178.49 107.315 178.16 107.767C177.829 108.22 177.688 108.783 177.767 109.338C177.846 109.892 178.139 110.394 178.583 110.737V110.734Z" fill="#00ACC1"/>
<path d="M176.105 120.43C176.935 121.283 180.882 122.254 180.882 122.254C180.882 122.254 180.024 118.286 179.195 117.433C179.001 117.22 178.765 117.047 178.503 116.927C178.24 116.806 177.956 116.739 177.668 116.73C177.379 116.721 177.091 116.77 176.822 116.874C176.552 116.978 176.306 117.135 176.099 117.336C175.891 117.537 175.727 117.777 175.614 118.043C175.502 118.308 175.444 118.594 175.444 118.882C175.445 119.171 175.503 119.456 175.616 119.721C175.729 119.987 175.895 120.227 176.103 120.427L176.105 120.43Z" fill="#00ACC1"/>
<path d="M120.791 45.7306L50.5986 110.997V207.103H190.981V110.997L120.791 45.7306Z" fill="url(#paint0_linear)"/>
<path d="M189.478 205.376H52.1011V111.327L120.791 47.4576L189.478 111.327V205.376Z" fill="#E8EAF1"/>
<path opacity="0.1" d="M188.951 111.386H52.1958V205.241H188.951V111.386Z" fill="black"/>
<path d="M115.146 193.341C115.146 193.341 118.536 199.684 121.503 201.094C124.47 202.505 122.069 204.477 119.242 204.055C116.416 203.634 107.095 196.866 107.095 196.866C107.095 196.866 107.159 192.436 108.045 192.114C108.931 191.792 115.146 193.341 115.146 193.341Z" fill="#575988"/>
<path d="M106.24 183.05C106.24 183.05 111.043 187.843 113.152 188.267C115.262 188.691 111.317 191.509 107.502 189.958C103.688 188.407 98.463 185.589 98.463 185.589C98.463 185.589 98.3222 181.078 100.723 180.656C103.125 180.235 106.24 183.05 106.24 183.05Z" fill="#575988"/>
<path opacity="0.05" d="M117.194 174.663C117.194 174.663 117.054 175.087 118.889 175.649C120.725 176.211 121.29 176.775 121.29 176.775" fill="black"/>
<path opacity="0.5" d="M101.294 135.281H96.5633V130.989C96.5633 130.186 96.2437 129.416 95.6748 128.848C95.1059 128.28 94.3342 127.961 93.5297 127.961H79.3217C78.5171 127.961 77.7455 128.28 77.1766 128.848C76.6077 129.416 76.2881 130.186 76.2881 130.989V145.168C76.2881 145.971 76.6077 146.741 77.1766 147.308C77.7455 147.876 78.5171 148.195 79.3217 148.195H84.0526V152.487C84.0526 153.29 84.3722 154.06 84.9411 154.628C85.51 155.196 86.2816 155.515 87.0862 155.515H101.294C102.099 155.515 102.87 155.196 103.439 154.628C104.008 154.06 104.328 153.29 104.328 152.487V138.308C104.328 137.911 104.249 137.517 104.097 137.15C103.944 136.782 103.721 136.449 103.439 136.167C103.158 135.886 102.823 135.663 102.455 135.511C102.087 135.359 101.693 135.281 101.294 135.281V135.281Z" fill="#00ACC1"/>
<path opacity="0.5" d="M161.682 125.808H147.474C147.076 125.808 146.681 125.886 146.313 126.038C145.945 126.19 145.611 126.413 145.329 126.694C145.047 126.975 144.824 127.309 144.671 127.676C144.519 128.044 144.44 128.437 144.44 128.835V135.493H137.336C136.532 135.493 135.76 135.812 135.191 136.379C134.622 136.947 134.303 137.717 134.303 138.52V145.395H127.629C126.824 145.395 126.053 145.714 125.484 146.282C124.915 146.85 124.595 147.62 124.595 148.422V162.602C124.595 163.404 124.915 164.174 125.484 164.742C126.053 165.31 126.824 165.629 127.629 165.629H141.827C142.631 165.629 143.403 165.31 143.972 164.742C144.541 164.174 144.86 163.404 144.86 162.602V155.729H151.555C152.359 155.729 153.131 155.41 153.7 154.842C154.269 154.275 154.588 153.505 154.588 152.702V146.044H161.692C162.496 146.041 163.266 145.72 163.832 145.152C164.399 144.583 164.717 143.813 164.716 143.011V128.832C164.715 128.03 164.395 127.261 163.826 126.693C163.257 126.126 162.486 125.808 161.682 125.808V125.808Z" fill="#00ACC1"/>
<path opacity="0.5" d="M121.561 141.024H107.353C105.678 141.024 104.32 142.379 104.32 144.051V158.23C104.32 159.902 105.678 161.258 107.353 161.258H121.561C123.237 161.258 124.595 159.902 124.595 158.23V144.051C124.595 142.379 123.237 141.024 121.561 141.024Z" fill="#00ACC1"/>
<path d="M52.1011 111.327L120.791 158.353L52.1011 205.376V111.327Z" fill="#E8EAF1"/>
<path d="M189.478 111.327L120.791 158.353L189.478 205.376V111.327Z" fill="#E8EAF1"/>
<path d="M52.1011 205.376L118.095 154.135C118.863 153.531 119.812 153.202 120.79 153.202C121.767 153.202 122.716 153.531 123.484 154.135L189.478 205.376H52.1011Z" fill="url(#paint1_linear)"/>
<path d="M52.1011 205.376L118.095 156.375C118.874 155.797 119.819 155.485 120.79 155.485C121.76 155.485 122.705 155.797 123.484 156.375L189.478 205.376H52.1011Z" fill="#E8EAF1"/>
<path d="M94.3773 90.0764C94.096 89.6762 93.6271 89.4173 93.1035 89.4173L84.5073 89.4251C83.6477 89.4251 82.9443 90.1235 82.9443 90.9866V98.8335C82.9443 99.6966 83.6477 100.395 84.5073 100.395L93.1035 100.403C93.6271 100.403 94.096 100.144 94.3773 99.7437L97.7923 94.91L94.3773 90.0764Z" fill="#F7B643"/>
<path d="M27.305 36.937C27.0237 36.5368 26.5548 36.2779 26.0312 36.2779L17.435 36.2857C16.5754 36.2857 15.8721 36.9841 15.8721 37.8472V45.6941C15.8721 46.5572 16.5754 47.2556 17.435 47.2556L26.0312 47.2634C26.5548 47.2634 27.0237 47.0045 27.305 46.6043L30.7201 41.7706L27.305 36.937Z" fill="#5C5C8E"/>
<path d="M51.8807 44.6013C51.5994 44.2011 51.1305 43.9422 50.6069 43.9422L42.0107 43.95C41.1511 43.95 40.4478 44.6484 40.4478 45.5116V53.3584C40.4478 54.2215 41.1511 54.9199 42.0107 54.9199L50.6069 54.9277C51.1305 54.9277 51.5994 54.6688 51.8807 54.2686L55.2958 49.435L51.8807 44.6013Z" fill="#73B53B"/>
<path d="M75.6888 65.0396C75.4075 64.6394 74.9386 64.3804 74.415 64.3804L65.8188 64.3883C64.9592 64.3883 64.2559 65.0866 64.2559 65.9498V73.7966C64.2559 74.6598 64.9592 75.3581 65.8188 75.3581L74.415 75.366C74.9386 75.366 75.4075 75.107 75.6888 74.7069L79.1039 69.8732L75.6888 65.0396Z" fill="#F97878"/>
<path d="M146.113 87.0674L136.257 84.6983V103.238L146.113 100.663V87.0674Z" fill="#404063"/>
<path d="M126.401 87.0674L136.257 84.6983V103.238L126.401 100.714V87.0674Z" fill="#4C4C76"/>
<path d="M121.426 83.1323L126.483 87.1493L136.339 84.7802L131.334 80.5575L121.426 83.1323Z" fill="#565987"/>
<path d="M136.175 84.7802L141.366 80.4756L151.222 82.9991L146.031 87.1493L136.175 84.7802Z" fill="#565987"/>
<path d="M126.401 87.1542V100.801L136.257 103.324L136.39 89.7806L126.401 87.1542Z" fill="#5C5C8E"/>
<path d="M146.113 100.75L136.257 103.324V89.7806L146.113 87.1542V100.75Z" fill="#565685"/>
<path opacity="0.1" d="M126.272 94.2353L131.794 95.6255L136.232 92.0206V89.8064L126.376 87.3345L126.272 94.2353Z" fill="black"/>
<path opacity="0.1" d="M146.191 94.2353L140.669 95.6255L136.231 92.0206V89.8064L146.088 87.3345L146.191 94.2353Z" fill="black"/>
<path d="M126.401 87.1542L121.344 91.3253L131.2 93.7973L136.257 89.7806L126.401 87.1542Z" fill="#565987"/>
<path d="M146.113 87.1542L151.222 91.3253L141.417 93.7973L136.257 89.7806L146.113 87.1542Z" fill="#565987"/>
<path d="M168.385 55.8991L158.529 53.53V72.0692L168.385 69.4945V55.8991Z" fill="#649E33"/>
<path d="M148.673 55.8991L158.529 53.53V72.0692L148.673 69.5457V55.8991Z" fill="#6CA937"/>
<path d="M143.698 51.964L148.755 55.981L158.611 53.6119L153.606 49.3892L143.698 51.964Z" fill="#73B53B"/>
<path d="M158.447 53.6119L163.638 49.3073L173.494 51.8308L168.303 55.981L158.447 53.6119Z" fill="#73B53B"/>
<path d="M148.673 55.9859V69.6325L158.529 72.1561L158.662 58.6123L148.673 55.9859Z" fill="#73B53B"/>
<path d="M168.385 69.5813L158.529 72.1561V58.6123L168.385 55.9859V69.5813Z" fill="#6CA937"/>
<path opacity="0.1" d="M148.544 63.0669L154.066 64.4572L158.504 60.8523V58.6381L148.647 56.1662L148.544 63.0669Z" fill="black"/>
<path opacity="0.1" d="M168.463 63.0669L162.941 64.4572L158.503 60.8523V58.6381L168.36 56.1662L168.463 63.0669Z" fill="black"/>
<path d="M148.673 55.9859L143.616 60.157L153.472 62.629L158.529 58.6123L148.673 55.9859Z" fill="#73B53B"/>
<path d="M168.385 55.9859L173.494 60.157L163.689 62.6289L158.529 58.6123L168.385 55.9859Z" fill="#73B53B"/>
<path d="M193.217 29.8403L183.36 27.4712V46.0105L193.217 43.4357V29.8403Z" fill="#D36464"/>
<path d="M173.505 29.8403L183.361 27.4712V46.0105L173.505 43.4869V29.8403Z" fill="#E87373"/>
<path d="M168.53 25.9052L173.587 29.9223L183.443 27.5532L178.437 23.3304L168.53 25.9052Z" fill="#F97878"/>
<path d="M183.278 27.5532L188.469 23.2485L198.325 25.7721L193.135 29.9223L183.278 27.5532Z" fill="#F97878"/>
<path d="M173.505 29.9272V43.5738L183.361 46.0973L183.494 32.5536L173.505 29.9272Z" fill="#F97878"/>
<path d="M193.217 43.5226L183.36 46.0973V32.5536L193.217 29.9272V43.5226Z" fill="#E87373"/>
<path opacity="0.1" d="M173.376 37.0082L178.897 38.3984L183.335 34.7936V32.5794L173.479 30.1074L173.376 37.0082Z" fill="black"/>
<path opacity="0.1" d="M193.294 37.0082L187.773 38.3984L183.335 34.7936V32.5794L193.191 30.1074L193.294 37.0082Z" fill="black"/>
<path d="M173.505 29.9272L168.448 34.0983L178.304 36.5702L183.361 32.5536L173.505 29.9272Z" fill="#F97878"/>
<path d="M193.217 29.9272L198.325 34.0983L188.521 36.5702L183.36 32.5536L193.217 29.9272Z" fill="#F97878"/>
<path d="M228.033 20.3876L218.177 18.0185V36.5578L228.033 33.983V20.3876Z" fill="#EBB300"/>
<path d="M208.321 20.3876L218.177 18.0185V36.5578L208.321 34.0342V20.3876Z" fill="#FFC300"/>
<path d="M203.346 16.4525L208.403 20.4696L218.259 18.1005L213.254 13.8777L203.346 16.4525Z" fill="#FFD037"/>
<path d="M218.095 18.1005L223.286 13.7958L233.142 16.3194L227.951 20.4696L218.095 18.1005Z" fill="#FFD037"/>
<path d="M208.321 20.4745V34.1211L218.177 36.6447L218.31 23.1009L208.321 20.4745Z" fill="#FFD037"/>
<path d="M228.033 34.0699L218.177 36.6447V23.1009L228.033 20.4745V34.0699Z" fill="#FFC300"/>
<path opacity="0.1" d="M208.192 27.5555L213.714 28.9457L218.152 25.3409V23.1267L208.295 20.6548L208.192 27.5555Z" fill="black"/>
<path opacity="0.1" d="M228.111 27.5555L222.589 28.9457L218.151 25.3409V23.1267L228.008 20.6548L228.111 27.5555Z" fill="black"/>
<path d="M208.321 20.4745L203.264 24.6456L213.12 27.1175L218.177 23.1009L208.321 20.4745Z" fill="#FFD037"/>
<path d="M228.033 20.4745L233.142 24.6456L223.337 27.1175L218.177 23.1009L228.033 20.4745Z" fill="#FFD037"/>
</g>
<defs>
<linearGradient id="paint0_linear" x1="120.791" y1="207.103" x2="120.791" y2="45.7306" gradientUnits="userSpaceOnUse">
<stop stop-color="#808080" stop-opacity="0.25"/>
<stop offset="0.54" stop-color="#808080" stop-opacity="0.12"/>
<stop offset="1" stop-color="#808080" stop-opacity="0.1"/>
</linearGradient>
<linearGradient id="paint1_linear" x1="78609.9" y1="43619.6" x2="78609.9" y2="32965.2" gradientUnits="userSpaceOnUse">
<stop stop-color="#808080" stop-opacity="0.25"/>
<stop offset="0.54" stop-color="#808080" stop-opacity="0.12"/>
<stop offset="1" stop-color="#808080" stop-opacity="0.1"/>
</linearGradient>
<clipPath id="clip0">
<rect width="256" height="215" fill="white"/>
</clipPath>
</defs>
</svg>
