<svg width="36" height="36" viewBox="0 0 36 36" fill="none" xmlns="http://www.w3.org/2000/svg">
<path d="M16.6502 18.12C13.1552 11.355 15.9002 5.4 17.4452 3.015C9.40521 3.3 2.97021 9.885 2.97021 18C2.97021 18.21 3.00021 18.42 3.00021 18.63C3.93021 18.225 4.93521 18 6.00021 18C8.49021 18 10.7702 19.245 12.1502 21.225C14.6552 21.945 16.5002 24.255 16.5002 27C16.5002 29.28 15.1952 31.245 13.3202 32.265C14.7902 32.745 16.3652 33.015 17.9852 33.015C23.2352 33.015 27.8552 30.315 30.5402 26.235C27.0002 26.58 20.0702 24.78 16.6502 18.12Z" fill="#00ACC1"/>
<path d="M10.5 24H10.23C9.6 22.26 7.95 21 6 21C3.51 21 1.5 23.01 1.5 25.5C1.5 27.99 3.51 30 6 30C6.93 30 9.735 30 10.5 30C12.15 30 13.5 28.65 13.5 27C13.5 25.35 12.15 24 10.5 24Z" fill="#00ACC1"/>
</svg>
