<svg width="812" height="521" viewBox="0 0 812 521" fill="none" xmlns="http://www.w3.org/2000/svg">
<path fill-rule="evenodd" clip-rule="evenodd" d="M811 13H1V515.5C1 517.709 2.79084 519.5 4.99998 519.5H807C809.209 519.5 811 517.709 811 515.5V13ZM247.5 178C254.404 178 260 172.404 260 165.5C260 158.596 254.404 153 247.5 153C240.596 153 235 158.596 235 165.5C235 172.404 240.596 178 247.5 178ZM233 391C233 388.791 234.791 387 237 387H320C322.209 387 324 388.791 324 391V413C324 415.209 322.209 417 320 417H237C234.791 417 233 415.209 233 413V391ZM222 288C219.791 288 218 289.791 218 292V311C218 313.209 219.791 315 222 315H283C285.209 315 287 313.209 287 311V292C287 289.791 285.209 288 283 288H222Z" fill="#345255" fill-opacity="0.2"/>
</svg>
