<svg fill="none" height="521" viewBox="0 0 812 521" width="812" xmlns="http://www.w3.org/2000/svg" xmlns:xlink="http://www.w3.org/1999/xlink"><filter id="a" color-interpolation-filters="sRGB" filterUnits="userSpaceOnUse" height="510.5" width="814" x="-1" y="11"><feFlood flood-opacity="0" result="BackgroundImageFix"/><feGaussianBlur in="BackgroundImage" stdDeviation="1"/><feComposite in2="SourceAlpha" operator="in" result="effect1_backgroundBlur"/><feBlend in="SourceGraphic" in2="effect1_backgroundBlur" mode="normal" result="shape"/></filter><g filter="url(#a)"><path clip-rule="evenodd" d="m811 13h-810v502.5c0 2.209 1.79084 4 3.99998 4h802.00002c2.209 0 4-1.791 4-4zm-563.5 163.08c6.904 0 12.5-5.599 12.5-12.506s-5.596-12.506-12.5-12.506-12.5 5.599-12.5 12.506 5.596 12.506 12.5 12.506zm.5 180.087c0-2.209 1.791-4 4-4h149c2.209 0 4 1.791 4 4v22.015c0 2.209-1.791 4-4 4h-149c-2.209 0-4-1.791-4-4zm-26-102.048c-2.209 0-4 1.791-4 4v19.013c0 2.209 1.791 4 4 4h59c2.209 0 4-1.791 4-4v-19.013c0-2.209-1.791-4-4-4z" fill="#345255" fill-opacity=".2" fill-rule="evenodd"/></g></svg>