<svg width="812" height="521" viewBox="0 0 812 521" fill="none" xmlns="http://www.w3.org/2000/svg">
<path fill-rule="evenodd" clip-rule="evenodd" d="M811 13H1V515.5C1 517.709 2.79084 519.5 4.99998 519.5H807C809.209 519.5 811 517.709 811 515.5V13ZM689.5 246C697.508 246 704 239.508 704 231.5C704 223.492 697.508 217 689.5 217C681.492 217 675 223.492 675 231.5C675 239.508 681.492 246 689.5 246ZM235 220C235 217.791 236.791 216 239 216H379C381.209 216 383 217.791 383 220V242C383 244.209 381.209 246 379 246H239C236.791 246 235 244.209 235 242V220ZM714 218C711.791 218 710 219.791 710 222V241C710 243.209 711.791 245 714 245H760C762.209 245 764 243.209 764 241V222C764 219.791 762.209 218 760 218H714Z" fill="#345255" fill-opacity="0.2"/>
</svg>
