<svg fill="none" height="521" viewBox="0 0 812 521" width="812" xmlns="http://www.w3.org/2000/svg" xmlns:xlink="http://www.w3.org/1999/xlink"><filter id="a" color-interpolation-filters="sRGB" filterUnits="userSpaceOnUse" height="510.5" width="814" x="-1" y="11"><feFlood flood-opacity="0" result="BackgroundImageFix"/><feGaussianBlur in="BackgroundImage" stdDeviation="1"/><feComposite in2="SourceAlpha" operator="in" result="effect1_backgroundBlur"/><feBlend in="SourceGraphic" in2="effect1_backgroundBlur" mode="normal" result="shape"/></filter><g filter="url(#a)"><path clip-rule="evenodd" d="m811 13h-810v502.5c0 2.209 1.79084 4 3.99998 4h802.00002c2.209 0 4-1.791 4-4zm-121.5 373c8.008 0 14.5-6.492 14.5-14.5s-6.492-14.5-14.5-14.5-14.5 6.492-14.5 14.5 6.492 14.5 14.5 14.5zm-454.5-26c0-2.209 1.791-4 4-4h114c2.209 0 4 1.791 4 4v22c0 2.209-1.791 4-4 4h-114c-2.209 0-4-1.791-4-4zm479-2c-2.209 0-4 1.791-4 4v19c0 2.209 1.791 4 4 4h46c2.209 0 4-1.791 4-4v-19c0-2.209-1.791-4-4-4z" fill="#345255" fill-opacity=".2" fill-rule="evenodd"/></g></svg>