<svg width="20" height="20" viewBox="0 0 20 20" fill="none" xmlns="http://www.w3.org/2000/svg">
<path fill-rule="evenodd" clip-rule="evenodd" d="M17.6577 2C18.5038 2 19.1961 2.69231 19.1961 3.53846V12.7692C19.1961 13.6154 18.5038 14.3077 17.6577 14.3077H17.0157V12.7692H17.6577V5.07692V3.53846H5.34998V4.22693H3.81152V3.53846C3.81152 2.69231 4.50383 2 5.34998 2H17.6577Z" fill="black"/>
<path d="M16.3846 6.43385C16.3846 5.58769 15.6923 4.89539 14.8462 4.89539H2.53846C1.69231 4.89539 1 5.58769 1 6.43385V15.6646C1 16.5108 1.69231 17.2031 2.53846 17.2031H14.8462C15.6923 17.2031 16.3846 16.5108 16.3846 15.6646V6.43385ZM14.8462 6.43385L8.69231 10.28L2.53846 6.43385H14.8462ZM14.8462 15.6646H2.53846V7.97231L8.69231 11.8185L14.8462 7.97231V15.6646Z" fill="black"/>
</svg>
