<svg width="169" height="47" viewBox="0 0 169 47" fill="none" xmlns="http://www.w3.org/2000/svg">
<path d="M54.872 15.924C56.888 15.924 57.896 16.666 57.896 18.15C57.896 18.318 57.854 18.892 57.77 19.872C57.686 20.824 57.602 22.014 57.518 23.442C57.462 24.87 57.434 26.228 57.434 27.516C57.434 31.268 57.798 33.998 58.526 35.706C57.826 36.014 57.028 36.168 56.132 36.168C54.9 36.168 54.06 35.916 53.612 35.412C53.192 34.908 52.982 34.054 52.982 32.85C52.982 32.402 52.996 31.324 53.024 29.616C53.052 27.88 53.066 26.55 53.066 25.626C53.066 21.566 52.94 18.388 52.688 16.092C53.36 15.98 54.088 15.924 54.872 15.924ZM55.082 14.16C54.242 14.16 53.528 13.88 52.94 13.32C52.352 12.76 52.058 12.046 52.058 11.178C52.058 10.338 52.366 9.638 52.982 9.078C53.598 8.49 54.326 8.196 55.166 8.196C55.978 8.196 56.678 8.49 57.266 9.078C57.854 9.638 58.148 10.338 58.148 11.178C58.148 12.018 57.84 12.732 57.224 13.32C56.608 13.88 55.894 14.16 55.082 14.16ZM66.675 17.982C68.663 16.414 70.903 15.63 73.395 15.63C75.103 15.63 76.489 16.134 77.553 17.142C78.617 18.15 79.149 19.774 79.149 22.014C79.149 22.322 79.121 23.414 79.065 25.29C79.037 27.166 79.023 28.538 79.023 29.406C79.023 31.702 79.387 33.774 80.115 35.622C79.247 35.986 78.463 36.168 77.763 36.168C76.615 36.168 75.803 35.93 75.327 35.454C74.851 34.978 74.613 34.082 74.613 32.766C74.613 31.31 74.641 29.56 74.697 27.516C74.753 25.444 74.781 24.016 74.781 23.232C74.781 21.692 74.473 20.544 73.857 19.788C73.241 19.032 72.443 18.654 71.463 18.654C69.979 18.654 68.439 19.382 66.843 20.838C66.899 24.59 66.927 27.32 66.927 29.028C66.927 31.716 67.011 34.012 67.179 35.916C66.423 36.028 65.723 36.084 65.079 36.084C63.259 36.084 62.349 35.524 62.349 34.404C62.349 33.592 62.377 32.276 62.433 30.456C62.517 28.636 62.559 26.998 62.559 25.542C62.559 20.894 62.293 17.842 61.761 16.386C62.433 16.078 63.161 15.924 63.945 15.924C64.757 15.924 65.387 16.05 65.835 16.302C66.283 16.554 66.563 17.114 66.675 17.982ZM97.0925 25.584C97.0925 23.26 96.6725 21.538 95.8325 20.418C95.0205 19.27 93.9985 18.696 92.7665 18.696C91.1425 18.696 89.6305 19.396 88.2305 20.796C88.2585 22.476 88.2725 24.338 88.2725 26.382C88.2725 28.286 88.2305 29.924 88.1465 31.296C89.4905 32.64 90.9745 33.312 92.5985 33.312C94.1105 33.312 95.2305 32.556 95.9585 31.044C96.7145 29.532 97.0925 27.712 97.0925 25.584ZM94.2785 15.63C96.4625 15.63 98.2405 16.456 99.6125 18.108C100.985 19.732 101.671 22.182 101.671 25.458C101.671 28.538 100.859 31.142 99.2345 33.27C97.6105 35.37 95.2725 36.42 92.2205 36.42C88.8885 36.42 86.0325 35.44 83.6525 33.48C83.8485 31.828 83.9465 28.846 83.9465 24.534C83.9465 22.042 83.8765 18.43 83.7365 13.698C83.5965 8.938 83.4425 6.026 83.2745 4.962C83.8065 4.85 84.5485 4.794 85.5005 4.794C87.4605 4.794 88.4405 5.55 88.4405 7.062C88.4405 7.398 88.3985 8.616 88.3145 10.716C88.2305 12.816 88.1885 15.182 88.1885 17.814C89.9805 16.358 92.0105 15.63 94.2785 15.63ZM118.742 26.55C118.742 24.31 118.266 22.448 117.314 20.964C116.39 19.452 115.13 18.696 113.534 18.696C111.91 18.696 110.65 19.312 109.754 20.544C108.858 21.776 108.41 23.414 108.41 25.458C108.41 27.726 108.858 29.602 109.754 31.086C110.678 32.57 111.938 33.312 113.534 33.312C115.186 33.312 116.46 32.696 117.356 31.464C118.28 30.232 118.742 28.594 118.742 26.55ZM113.534 36.42C110.622 36.42 108.27 35.482 106.478 33.606C104.714 31.702 103.832 29.168 103.832 26.004C103.832 22.84 104.714 20.32 106.478 18.444C108.27 16.568 110.622 15.63 113.534 15.63C116.474 15.63 118.84 16.568 120.632 18.444C122.424 20.32 123.32 22.84 123.32 26.004C123.32 29.168 122.424 31.702 120.632 33.606C118.84 35.482 116.474 36.42 113.534 36.42ZM137.056 35.16C136.103 33.984 134.703 31.856 132.855 28.776C130.475 32.304 129.145 34.852 128.865 36.42C126.261 36.42 124.959 35.86 124.959 34.74C124.959 33.928 125.687 32.584 127.143 30.708C128.599 28.832 130.055 27.194 131.511 25.794C128.375 21.174 126.191 18.458 124.959 17.646C126.247 16.302 127.311 15.63 128.151 15.63C129.159 15.63 129.957 16.022 130.545 16.806C131.217 17.674 132.379 19.508 134.032 22.308C135.795 19.228 136.775 16.988 136.971 15.588C139.631 15.644 140.961 16.204 140.961 17.268C140.961 17.94 140.373 19.116 139.197 20.796C138.049 22.448 136.803 23.96 135.46 25.332C136.888 27.544 138.274 29.546 139.617 31.338C140.99 33.102 142.012 34.222 142.684 34.698C141.564 35.846 140.43 36.42 139.282 36.42C138.469 36.42 137.727 36 137.056 35.16ZM146.718 46.5C146.158 46.5 145.612 46.29 145.08 45.87C144.576 45.45 144.156 44.918 143.82 44.274C144.604 43.742 145.626 42.748 146.886 41.292C148.146 39.836 149.35 38.156 150.498 36.252C149.462 32.808 148.118 29.056 146.466 24.996C144.842 20.936 143.484 18.36 142.392 17.268C143.764 16.316 144.87 15.84 145.71 15.84C146.774 15.84 147.53 16.316 147.978 17.268C148.594 18.556 149.448 20.558 150.54 23.274C151.632 25.962 152.542 28.496 153.27 30.876C154.222 28.524 155.006 26.046 155.622 23.442C156.238 20.838 156.546 18.738 156.546 17.142C156.546 16.638 156.518 16.218 156.462 15.882C157.106 15.714 157.82 15.63 158.604 15.63C160.116 15.63 160.872 16.218 160.872 17.394C160.872 18.682 160.368 20.908 159.36 24.072C158.352 27.236 157.162 30.302 155.79 33.27C153.27 38.73 150.96 42.762 148.86 45.366C148.244 46.122 147.53 46.5 146.718 46.5Z" fill="#00ACC1"/>
<path d="M8.33366 19.0292V4.16667H33.3337V19.0292L37.5003 16.6479V0H4.16699V16.6479L8.33366 19.0292Z" fill="#00ACC1"/>
<path d="M27.6375 27.0833H14.0292L0 19.0667V37.5C0 39.8 1.86667 41.6666 4.16667 41.6666H37.5C39.8 41.6666 41.6667 39.8 41.6667 37.5V19.0667L27.6375 27.0833Z" fill="#00ACC1"/>
<path d="M19.1809 22.1272L11.458 14.4042L14.4038 11.4584L19.1809 16.2355L28.1247 7.29175L31.0705 10.2376L19.1809 22.1272Z" fill="#00ACC1"/>
</svg>
